<svg width="100" height="100" viewBox="0 0 100 100" fill="none" xmlns="http://www.w3.org/2000/svg">
<g clip-path="url(#clip0_37_745)" filter="url(#filter0_i_37_745)">
<path d="M37.5136 89L30.4318 76.9286L16.3614 74.05L17.9455 60.4L9 50L17.9455 39.6929L16.3614 26.0429L30.4318 23.1643L37.5136 11L50 16.7571L62.4864 11L69.6614 23.1643L83.6386 26.0429L82.0546 39.6929L91 50L82.0546 60.4L83.6386 74.05L69.6614 76.9286L62.4864 89L50 83.2429L37.5136 89Z" fill="#D03B32"/>
<path d="M27.6902 84.7574L23.965 71.1507L11.0525 64.6842L16.1551 51.7941L10.1836 39.3314L21.5623 31.6145L23.5882 17.9001L38.0041 18.7562L48.0578 8.74457L58.6803 17.6041L72.3095 15.2428L76.101 28.9642L88.923 35.4065L83.8204 48.2965L89.8161 60.6688L78.4133 68.4761L76.3873 82.1906L62.0619 81.3587L51.9419 91.2556L41.3194 82.396L27.6902 84.7574Z" fill="#D03B32"/>
<path d="M40.2958 62.75C39.8236 62.75 39.3927 62.6083 39.0031 62.325C38.6135 62.0416 38.3597 61.6639 38.2417 61.1916L34.3458 47.0958C34.2514 46.7652 34.3104 46.4583 34.5229 46.175C34.7354 45.8916 35.0188 45.75 35.3729 45.75H42.5271L49.0792 36.1875C49.1972 36.0458 49.3271 35.9336 49.4688 35.851C49.6104 35.7684 49.7757 35.7271 49.9646 35.7271C50.1535 35.7271 50.3188 35.7684 50.4604 35.851C50.6021 35.9336 50.7319 36.0458 50.85 36.1875L57.3667 45.75H64.6625C65.0167 45.75 65.3 45.8916 65.5125 46.175C65.725 46.4583 65.784 46.7652 65.6896 47.0958L61.7583 61.1916C61.6403 61.6639 61.3865 62.0416 60.9969 62.325C60.6073 62.6083 60.1764 62.75 59.7042 62.75H40.2958ZM50 56.375C50.5903 56.375 51.092 56.1684 51.5052 55.7552C51.9184 55.342 52.125 54.8402 52.125 54.25C52.125 53.6597 51.9184 53.158 51.5052 52.7448C51.092 52.3316 50.5903 52.125 50 52.125C49.4097 52.125 48.908 52.3316 48.4948 52.7448C48.0816 53.158 47.875 53.6597 47.875 54.25C47.875 54.8402 48.0816 55.342 48.4948 55.7552C48.908 56.1684 49.4097 56.375 50 56.375ZM45.1125 45.75H54.7813L49.9646 38.6666L45.1125 45.75Z" fill="white"/>
</g>
<defs>
<filter id="filter0_i_37_745" x="0" y="0" width="104" height="104" filterUnits="userSpaceOnUse" color-interpolation-filters="sRGB">
<feFlood flood-opacity="0" result="BackgroundImageFix"/>
<feBlend mode="normal" in="SourceGraphic" in2="BackgroundImageFix" result="shape"/>
<feColorMatrix in="SourceAlpha" type="matrix" values="0 0 0 0 0 0 0 0 0 0 0 0 0 0 0 0 0 0 127 0" result="hardAlpha"/>
<feOffset dx="5" dy="4"/>
<feGaussianBlur stdDeviation="2"/>
<feComposite in2="hardAlpha" operator="arithmetic" k2="-1" k3="1"/>
<feColorMatrix type="matrix" values="0 0 0 0 0 0 0 0 0 0 0 0 0 0 0 0 0 0 0.05 0"/>
<feBlend mode="normal" in2="shape" result="effect1_innerShadow_37_745"/>
</filter>
<clipPath id="clip0_37_745">
<rect width="100" height="100" fill="white"/>
</clipPath>
</defs>
</svg>
